# xmcd
#
# Track frame offsets: 
#        150
#        11125
#        18057
#        23570
#        30770
#        41380
#        59420
#        61440
#        69425
#        73427
#        76970
#        85675
#        109970
#        122937
#        142667
#
# Disc length: 2039 seconds
#
# Revision: 9
# Processed by: cddbd v1.5.1PL0 Copyright (c) Steve Scherf et al.
# Submitted via: ExactAudioCopy v0.95a5
#
DISCID=bb07f50f
DTITLE=Willie Nelson - Red Headed Stranger
DYEAR=1975
DGENRE=Country
TTITLE0=Time of the Preacher
TTITLE1=I Couldn't Believe It Was True
TTITLE2=Time of the Preacher Theme (Part 1)
TTITLE3=Medley: Blue Rock Montana/Red Headed Stranger
TTITLE4=Blue Eyes Crying In the Rain
TTITLE5=Red Headed Stranger
TTITLE6=Time of the Preacher Theme (Part 2)
TTITLE7=Just As I Am
TTITLE8=Denver
TTITLE9=O'er the Waves
TTITLE10=Down Yonder
TTITLE11=Can I Sleep In Your Arms
TTITLE12=Remember Me
TTITLE13=Hands On the Wheel
TTITLE14=Bandera
EXTD=YEAR: 1975
EXTT0=
EXTT1=
EXTT2=
EXTT3=
EXTT4=
EXTT5=
EXTT6=
EXTT7=
EXTT8=
EXTT9=
EXTT10=
EXTT11=
EXTT12=
EXTT13=
EXTT14=
PLAYORDER=
